<svg width="44" height="44" viewBox="0 0 44 44" fill="none" xmlns="http://www.w3.org/2000/svg">
<g id="ph:arrow-down-duotone">
<path id="Vector" d="M35.3545 25.7297L22.9795 38.1047C22.7167 38.3588 22.3654 38.5009 21.9998 38.5009C21.6342 38.5009 21.283 38.3588 21.0201 38.1047L8.64514 25.7297C8.42588 25.4625 8.31382 25.1234 8.33078 24.7782C8.34773 24.433 8.49248 24.1064 8.73686 23.862C8.98125 23.6177 9.3078 23.4729 9.653 23.456C9.99819 23.439 10.3374 23.5511 10.6045 23.7703L20.6248 33.8078V6.875C20.6248 6.51033 20.7697 6.16059 21.0276 5.90273C21.2854 5.64487 21.6352 5.5 21.9998 5.5C22.3645 5.5 22.7142 5.64487 22.9721 5.90273C23.23 6.16059 23.3748 6.51033 23.3748 6.875V33.8078L33.3951 23.7703C33.6623 23.5511 34.0015 23.439 34.3467 23.456C34.6919 23.4729 35.0184 23.6177 35.2628 23.862C35.5072 24.1064 35.6519 24.433 35.6689 24.7782C35.6858 25.1234 35.5738 25.4625 35.3545 25.7297Z" fill="#8B8B8B"/>
</g>
</svg>
