<svg width="150" height="150" viewBox="0 0 150 150" fill="none" xmlns="http://www.w3.org/2000/svg">
<path d="M120.95 47.6063L96.2 25.3376C89.1563 18.9938 85.6375 15.8188 81.3062 14.1626L81.25 31.2501C81.25 45.9813 81.25 53.3501 85.825 57.9251C90.4 62.5001 97.7687 62.5001 112.5 62.5001H134.875C132.612 58.1001 128.55 54.4501 120.95 47.6063Z" fill="#8B8B8B"/>
<path fill-rule="evenodd" clip-rule="evenodd" d="M62.5 137.5H87.5C111.069 137.5 122.856 137.5 130.175 130.175C137.5 122.856 137.5 111.069 137.5 87.5V84.7688C137.5 79.3125 137.5 75.2125 137.231 71.875H111.906C105.05 71.875 98.9875 71.875 94.1063 71.2188C88.8125 70.5063 83.5187 68.875 79.2 64.5563C74.875 60.2313 73.2437 54.9375 72.5312 49.6438C71.875 44.7625 71.875 38.7063 71.875 31.8438L71.9375 14.1312C71.9375 13.6125 71.9812 13.1062 72.0625 12.6062C69.5062 12.5 66.475 12.5 62.6875 12.5C38.9937 12.5 27.1437 12.5 19.825 19.825C12.5 27.1438 12.5 38.9313 12.5 62.5V87.5C12.5 111.069 12.5 122.856 19.825 130.175C27.1437 137.5 38.9313 137.5 62.5 137.5ZM49.9187 119.044C50.7876 119.858 51.934 120.312 53.125 120.312C54.316 120.312 55.4624 119.858 56.3312 119.044L68.8312 107.325C69.7168 106.47 70.2303 105.3 70.2607 104.069C70.2911 102.838 69.836 101.645 68.9938 100.747C68.1515 99.8488 66.9897 99.3182 65.7594 99.2696C64.5291 99.2211 63.3291 99.6586 62.4188 100.488L57.8125 104.8V84.375C57.8125 83.1318 57.3186 81.9395 56.4396 81.0604C55.5605 80.1814 54.3682 79.6875 53.125 79.6875C51.8818 79.6875 50.6895 80.1814 49.8104 81.0604C48.9314 81.9395 48.4375 83.1318 48.4375 84.375V104.806L43.8313 100.488C42.9209 99.6586 41.7209 99.2211 40.4906 99.2696C39.2603 99.3182 38.0985 99.8488 37.2562 100.747C36.414 101.645 35.9589 102.838 35.9893 104.069C36.0197 105.3 36.5332 106.47 37.4187 107.325L49.9187 119.044Z" fill="#8B8B8B"/>
</svg>
