<svg width="75" height="75" viewBox="0 0 75 75" fill="none" xmlns="http://www.w3.org/2000/svg">
<g clip-path="url(#clip0_12488_617)">
<path d="M2.49981 2.5V0C2.15391 0.000161104 1.8118 0.0721031 1.49512 0.211276C1.17845 0.350448 0.894102 0.553823 0.660066 0.808536C0.426031 1.06325 0.247401 1.36376 0.135473 1.69106C0.0235452 2.01835 -0.0192438 2.36532 0.00981242 2.71L2.49981 2.5ZM72.4998 2.5L74.9898 2.71C75.0189 2.36532 74.9761 2.01835 74.8642 1.69106C74.7522 1.36376 74.5736 1.06325 74.3396 0.808536C74.1055 0.553823 73.8212 0.350448 73.5045 0.211276C73.1878 0.0721031 72.8457 0.000161104 72.4998 0V2.5ZM67.4998 62.5L68.2898 64.87C68.754 64.7151 69.1624 64.4274 69.4646 64.0425C69.7668 63.6577 69.9494 63.1926 69.9898 62.705L67.4998 62.5ZM37.4998 72.5L36.7098 74.87C37.2226 75.0412 37.7771 75.0412 38.2898 74.87L37.4998 72.5ZM7.49981 62.5L5.00981 62.705C5.05021 63.1926 5.23282 63.6577 5.53501 64.0425C5.8372 64.4274 6.24567 64.7151 6.70981 64.87L7.49981 62.5ZM22.4998 17.5V15H19.9998V17.5H22.4998ZM22.4998 32.5H19.9998V35H22.4998V32.5ZM52.4998 32.5H54.9998V30H52.4998V32.5ZM52.4998 47.5L53.2898 49.87L54.9998 49.3V47.5H52.4998ZM37.4998 52.5L36.7098 54.87L37.4998 55.135L38.2898 54.87L37.4998 52.5ZM22.4998 47.5H19.9998V49.3L21.7098 49.87L22.4998 47.5ZM2.49981 5H72.4998V0H2.49981V5ZM70.0098 2.29L65.0098 62.29L69.9898 62.705L74.9898 2.705L70.0098 2.29ZM66.7098 60.13L36.7098 70.13L38.2898 74.87L68.2898 64.87L66.7098 60.13ZM38.2898 70.13L8.28981 60.13L6.70981 64.87L36.7098 74.87L38.2898 70.13ZM9.98981 62.295L4.98981 2.295L0.00981242 2.71L5.00981 62.71L9.98981 62.295ZM54.9998 15H22.4998V20H54.9998V15ZM19.9998 17.5V32.5H24.9998V17.5H19.9998ZM22.4998 35H52.4998V30H22.4998V35ZM49.9998 32.5V47.5H54.9998V32.5H49.9998ZM51.7098 45.13L36.7098 50.13L38.2898 54.87L53.2898 49.87L51.7098 45.13ZM38.2898 50.13L23.2898 45.13L21.7098 49.87L36.7098 54.87L38.2898 50.13ZM24.9998 47.5V40H19.9998V47.5H24.9998Z" fill="#F1662A"/>
</g>
<defs>
<clipPath id="clip0_12488_617">
<rect width="75" height="75" fill="white"/>
</clipPath>
</defs>
</svg>
