<svg width="75" height="75" viewBox="0 0 75 75" fill="none" xmlns="http://www.w3.org/2000/svg">
<g clip-path="url(#clip0_12488_613)">
<path fill-rule="evenodd" clip-rule="evenodd" d="M75 0H0V75H75V0ZM40 40C40 37.3478 41.0536 34.8043 42.9289 32.9289C44.8043 31.0536 47.3478 30 50 30H55.835C60.895 30 65 34.1 65 39.165V40H60V39.165C60 38.618 59.8923 38.0764 59.683 37.5711C59.4736 37.0658 59.1669 36.6067 58.7801 36.2199C58.3933 35.8331 57.9342 35.5264 57.4289 35.317C56.9236 35.1077 56.382 35 55.835 35H50C48.6739 35 47.4021 35.5268 46.4645 36.4645C45.5268 37.4021 45 38.6739 45 40C45 41.3261 45.5268 42.5979 46.4645 43.5355C47.4021 44.4732 48.6739 45 50 45H55C57.6522 45 60.1957 46.0536 62.0711 47.9289C63.9464 49.8043 65 52.3478 65 55C65 57.6522 63.9464 60.1957 62.0711 62.0711C60.1957 63.9464 57.6522 65 55 65H50C47.3478 65 44.8043 63.9464 42.9289 62.0711C41.0536 60.1957 40 57.6522 40 55H45C45 56.3261 45.5268 57.5979 46.4645 58.5355C47.4021 59.4732 48.6739 60 50 60H55C56.3261 60 57.5979 59.4732 58.5355 58.5355C59.4732 57.5979 60 56.3261 60 55C60 53.6739 59.4732 52.4021 58.5355 51.4645C57.5979 50.5268 56.3261 50 55 50H50C47.3478 50 44.8043 48.9464 42.9289 47.0711C41.0536 45.1957 40 42.6522 40 40ZM30 30V55C30 56.3261 29.4732 57.5979 28.5355 58.5355C27.5979 59.4732 26.3261 60 25 60C23.6739 60 22.4021 59.4732 21.4645 58.5355C20.5268 57.5979 20 56.3261 20 55H15C15 57.6522 16.0536 60.1957 17.9289 62.0711C19.8043 63.9464 22.3478 65 25 65C27.6522 65 30.1957 63.9464 32.0711 62.0711C33.9464 60.1957 35 57.6522 35 55V30H30Z" fill="#F5DE19"/>
</g>
<defs>
<clipPath id="clip0_12488_613">
<rect width="75" height="75" fill="white"/>
</clipPath>
</defs>
</svg>
