<svg width="46" height="44" viewBox="0 0 46 44" fill="none" xmlns="http://www.w3.org/2000/svg">
<g filter="url(#filter0_d_12517_587)">
<mask id="path-1-inside-1_12517_587" fill="white">
<path d="M37.5833 0.25C38.6884 0.25 39.7482 0.688987 40.5296 1.47039C41.311 2.25179 41.75 3.3116 41.75 4.41667V33.5833C41.75 34.6884 41.311 35.7482 40.5296 36.5296C39.7482 37.311 38.6884 37.75 37.5833 37.75H8.41667C7.3116 37.75 6.25179 37.311 5.47039 36.5296C4.68899 35.7482 4.25 34.6884 4.25 33.5833V4.41667C4.25 3.3116 4.68899 2.25179 5.47039 1.47039C6.25179 0.688987 7.3116 0.25 8.41667 0.25H37.5833ZM36.5417 32.5417V21.5C36.5417 19.6987 35.8261 17.9712 34.5524 16.6976C33.2787 15.4239 31.5513 14.7083 29.75 14.7083C27.9792 14.7083 25.9167 15.7917 24.9167 17.4167V15.1042H19.1042V32.5417H24.9167V22.2708C24.9167 20.6667 26.2083 19.3542 27.8125 19.3542C28.586 19.3542 29.3279 19.6615 29.8749 20.2084C30.4219 20.7554 30.7292 21.4973 30.7292 22.2708V32.5417H36.5417ZM12.3333 11.8333C13.2616 11.8333 14.1518 11.4646 14.8082 10.8082C15.4646 10.1518 15.8333 9.26159 15.8333 8.33333C15.8333 6.39583 14.2708 4.8125 12.3333 4.8125C11.3996 4.8125 10.504 5.18344 9.84373 5.84373C9.18344 6.50401 8.8125 7.39955 8.8125 8.33333C8.8125 10.2708 10.3958 11.8333 12.3333 11.8333M15.2292 32.5417V15.1042H9.45833V32.5417H15.2292V32.5417Z"/>
</mask>
<path d="M37.5833 0.25C38.6884 0.25 39.7482 0.688987 40.5296 1.47039C41.311 2.25179 41.75 3.3116 41.75 4.41667V33.5833C41.75 34.6884 41.311 35.7482 40.5296 36.5296C39.7482 37.311 38.6884 37.75 37.5833 37.75H8.41667C7.3116 37.75 6.25179 37.311 5.47039 36.5296C4.68899 35.7482 4.25 34.6884 4.25 33.5833V4.41667C4.25 3.3116 4.68899 2.25179 5.47039 1.47039C6.25179 0.688987 7.3116 0.25 8.41667 0.25H37.5833ZM36.5417 32.5417V21.5C36.5417 19.6987 35.8261 17.9712 34.5524 16.6976C33.2787 15.4239 31.5513 14.7083 29.75 14.7083C27.9792 14.7083 25.9167 15.7917 24.9167 17.4167V15.1042H19.1042V32.5417H24.9167V22.2708C24.9167 20.6667 26.2083 19.3542 27.8125 19.3542C28.586 19.3542 29.3279 19.6615 29.8749 20.2084C30.4219 20.7554 30.7292 21.4973 30.7292 22.2708V32.5417H36.5417ZM12.3333 11.8333C13.2616 11.8333 14.1518 11.4646 14.8082 10.8082C15.4646 10.1518 15.8333 9.26159 15.8333 8.33333C15.8333 6.39583 14.2708 4.8125 12.3333 4.8125C11.3996 4.8125 10.504 5.18344 9.84373 5.84373C9.18344 6.50401 8.8125 7.39955 8.8125 8.33333C8.8125 10.2708 10.3958 11.8333 12.3333 11.8333M15.2292 32.5417V15.1042H9.45833V32.5417H15.2292V32.5417Z" fill="#0076B2"/>
<path d="M37.5833 0.25V-0.75V0.25ZM4.25 33.5833H3.25H4.25ZM8.41667 0.25V-0.75V0.25ZM36.5417 32.5417V33.5417H37.5417V32.5417H36.5417ZM29.75 14.7083L29.75 13.7083L29.75 14.7083ZM24.9167 17.4167H23.9167V20.9497L25.7683 17.9408L24.9167 17.4167ZM24.9167 15.1042H25.9167V14.1042H24.9167V15.1042ZM19.1042 15.1042V14.1042H18.1042V15.1042H19.1042ZM19.1042 32.5417H18.1042V33.5417H19.1042V32.5417ZM24.9167 32.5417V33.5417H25.9167V32.5417H24.9167ZM30.7292 32.5417H29.7292V33.5417H30.7292V32.5417ZM15.8333 8.33333H14.8333H15.8333ZM8.8125 8.33333L7.8125 8.33333L8.8125 8.33333ZM15.2292 15.1042H16.2292V14.1042H15.2292V15.1042ZM9.45833 15.1042V14.1042H8.45833V15.1042H9.45833ZM9.45833 32.5417H8.45833V33.5417H9.45833V32.5417ZM37.5833 1.25C38.4232 1.25 39.2286 1.58363 39.8225 2.17749L41.2367 0.763281C40.2678 -0.205656 38.9536 -0.75 37.5833 -0.75V1.25ZM39.8225 2.17749C40.4164 2.77136 40.75 3.57681 40.75 4.41667H42.75C42.75 3.04638 42.2057 1.73222 41.2367 0.763281L39.8225 2.17749ZM40.75 4.41667V33.5833H42.75V4.41667H40.75ZM40.75 33.5833C40.75 34.4232 40.4164 35.2286 39.8225 35.8225L41.2367 37.2367C42.2057 36.2678 42.75 34.9536 42.75 33.5833H40.75ZM39.8225 35.8225C39.2286 36.4164 38.4232 36.75 37.5833 36.75V38.75C38.9536 38.75 40.2678 38.2057 41.2367 37.2367L39.8225 35.8225ZM37.5833 36.75H8.41667V38.75H37.5833V36.75ZM8.41667 36.75C7.57681 36.75 6.77136 36.4164 6.17749 35.8225L4.76328 37.2367C5.73222 38.2057 7.04638 38.75 8.41667 38.75V36.75ZM6.17749 35.8225C5.58363 35.2286 5.25 34.4232 5.25 33.5833H3.25C3.25 34.9536 3.79434 36.2678 4.76328 37.2367L6.17749 35.8225ZM5.25 33.5833V4.41667H3.25V33.5833H5.25ZM5.25 4.41667C5.25 3.57681 5.58363 2.77136 6.17749 2.17749L4.76328 0.763281C3.79434 1.73222 3.25 3.04638 3.25 4.41667H5.25ZM6.17749 2.17749C6.77136 1.58363 7.57681 1.25 8.41667 1.25V-0.75C7.04638 -0.75 5.73222 -0.205657 4.76328 0.763281L6.17749 2.17749ZM8.41667 1.25H37.5833V-0.75H8.41667V1.25ZM37.5417 32.5417V21.5H35.5417V32.5417H37.5417ZM37.5417 21.5C37.5417 19.4335 36.7208 17.4517 35.2595 15.9905L33.8453 17.4047C34.9315 18.4908 35.5417 19.964 35.5417 21.5H37.5417ZM35.2595 15.9905C33.7983 14.5292 31.8165 13.7083 29.75 13.7083V15.7083C31.286 15.7083 32.7592 16.3185 33.8453 17.4047L35.2595 15.9905ZM29.75 13.7083C27.6424 13.7083 25.2525 14.963 24.065 16.8926L25.7683 17.9408C26.5809 16.6204 28.3159 15.7083 29.75 15.7083L29.75 13.7083ZM25.9167 17.4167V15.1042H23.9167V17.4167H25.9167ZM24.9167 14.1042H19.1042V16.1042H24.9167V14.1042ZM18.1042 15.1042V32.5417H20.1042V15.1042H18.1042ZM19.1042 33.5417H24.9167V31.5417H19.1042V33.5417ZM25.9167 32.5417V22.2708H23.9167V32.5417H25.9167ZM25.9167 22.2708C25.9167 21.2096 26.7699 20.3542 27.8125 20.3542V18.3542C25.6467 18.3542 23.9167 20.1237 23.9167 22.2708H25.9167ZM27.8125 20.3542C28.3208 20.3542 28.8083 20.5561 29.1678 20.9155L30.582 19.5013C29.8475 18.7668 28.8513 18.3542 27.8125 18.3542V20.3542ZM29.1678 20.9155C29.5272 21.275 29.7292 21.7625 29.7292 22.2708H31.7292C31.7292 21.2321 31.3165 20.2358 30.582 19.5013L29.1678 20.9155ZM29.7292 22.2708V32.5417H31.7292V22.2708H29.7292ZM30.7292 33.5417H36.5417V31.5417H30.7292V33.5417ZM12.3333 12.8333C13.5268 12.8333 14.6714 12.3592 15.5153 11.5153L14.1011 10.1011C13.6323 10.5699 12.9964 10.8333 12.3333 10.8333V12.8333ZM15.5153 11.5153C16.3592 10.6714 16.8333 9.52681 16.8333 8.33333H14.8333C14.8333 8.99637 14.5699 9.63226 14.1011 10.1011L15.5153 11.5153ZM16.8333 8.33333C16.8333 5.85129 14.8308 3.8125 12.3333 3.8125V5.8125C13.7108 5.8125 14.8333 6.94037 14.8333 8.33333L16.8333 8.33333ZM12.3333 3.8125C11.1343 3.8125 9.98444 4.2888 9.13662 5.13662L10.5508 6.55083C11.0236 6.07809 11.6648 5.8125 12.3333 5.8125V3.8125ZM9.13662 5.13662C8.2888 5.98444 7.8125 7.13433 7.8125 8.33333L9.8125 8.33333C9.8125 7.66477 10.0781 7.02358 10.5508 6.55083L9.13662 5.13662ZM7.8125 8.33333C7.8125 10.8308 9.85129 12.8333 12.3333 12.8333V10.8333C10.9404 10.8333 9.8125 9.71084 9.8125 8.33333L7.8125 8.33333ZM16.2292 32.5417V15.1042H14.2292V32.5417H16.2292ZM15.2292 14.1042H9.45833V16.1042H15.2292V14.1042ZM8.45833 15.1042V32.5417H10.4583V15.1042H8.45833ZM9.45833 33.5417H15.2292V31.5417H9.45833V33.5417Z" fill="#0076B2" mask="url(#path-1-inside-1_12517_587)"/>
</g>
<defs>
<filter id="filter0_d_12517_587" x="0.25" y="0.25" width="45.5" height="45.5" filterUnits="userSpaceOnUse" color-interpolation-filters="sRGB">
<feFlood flood-opacity="0" result="BackgroundImageFix"/>
<feColorMatrix in="SourceAlpha" type="matrix" values="0 0 0 0 0 0 0 0 0 0 0 0 0 0 0 0 0 0 127 0" result="hardAlpha"/>
<feOffset dy="4"/>
<feGaussianBlur stdDeviation="2"/>
<feComposite in2="hardAlpha" operator="out"/>
<feColorMatrix type="matrix" values="0 0 0 0 0 0 0 0 0 0 0 0 0 0 0 0 0 0 0.25 0"/>
<feBlend mode="normal" in2="BackgroundImageFix" result="effect1_dropShadow_12517_587"/>
<feBlend mode="normal" in="SourceGraphic" in2="effect1_dropShadow_12517_587" result="shape"/>
</filter>
</defs>
</svg>
