<svg width="75" height="75" viewBox="0 0 75 75" fill="none" xmlns="http://www.w3.org/2000/svg">
<g clip-path="url(#clip0_12488_623)">
<path d="M53.7279 29.8594C49.7779 12.4219 40.4404 6.69063 39.4373 4.5C38.5623 3.26875 37.7811 1.51875 37.1404 0C37.0279 1.54688 36.9686 2.14062 35.5061 3.7C33.2467 5.46875 21.6373 15.2063 20.6936 35.0125C19.8123 53.4875 34.0373 64.4969 35.9686 65.9L36.1873 66.0563C36.5895 69.0305 36.9333 72.0123 37.2186 75H38.7217C39.0777 71.7754 39.6097 68.5727 40.3154 65.4062C41.6186 64.4813 42.2029 63.9594 42.9717 63.2406C46.6122 59.8728 49.5054 55.7784 51.4643 51.2223C53.4231 46.6662 54.404 41.7496 54.3436 36.7906C54.3748 34.2469 54.0217 31.5969 53.7279 29.8594ZM37.0529 55.4688C37.0529 55.4688 37.0529 29.5594 37.9123 29.5625C38.5779 29.5625 39.4436 62.9844 39.4436 62.9844C38.2529 62.8438 37.0529 57.4844 37.0529 55.4688Z" fill="#4DA84C"/>
</g>
<defs>
<clipPath id="clip0_12488_623">
<rect width="75" height="75" fill="white"/>
</clipPath>
</defs>
</svg>
