<svg width="128" height="128" viewBox="0 0 128 128" fill="none" xmlns="http://www.w3.org/2000/svg">
<path d="M8.98348 78.0799C8.04648 78.3259 6.70748 79.0989 6.07548 79.7669L5.45348 80.3949L5.28048 78.1829H2.98748L2.93548 86.1999L2.89648 94.2329H5.50648L5.58048 89.0089C5.66648 83.1139 5.77048 82.5539 6.88548 81.4149C7.69548 80.5899 8.96548 80.1309 10.0755 80.2569C11.0115 80.3599 11.6635 80.7809 12.1575 81.6219C12.4895 82.1859 12.5075 82.5889 12.5645 88.2199L12.6165 94.2329H15.2265L15.2775 88.6579C15.3295 83.3089 15.3475 83.0619 15.7195 82.3589C17.0765 79.8529 20.6585 79.4689 21.8365 81.6949C22.1915 82.3589 22.2095 82.7279 22.2615 88.3059L22.3305 94.2329H24.7845L24.7285 87.6919L24.6765 81.1659L24.1815 80.2389C23.0895 78.1669 20.0715 77.3609 17.5715 78.4489C17.1635 78.6269 16.3875 79.2039 15.8415 79.7099C14.9275 80.5729 14.8365 80.6259 14.6455 80.3099C14.1855 79.5199 13.4265 78.8179 12.6675 78.4499C11.7665 78.0449 9.86348 77.8379 8.98348 78.0799Z" fill="#8B8B8B"/>
<path d="M30.9525 78.0971C28.8195 78.5521 26.7565 80.0771 25.9455 81.8331C24.6925 84.4831 24.7445 88.2891 26.0675 90.8631C27.4105 93.4951 30.8835 95.0031 34.0385 94.3531C38.3445 93.4431 40.3515 90.4431 40.0515 85.3761C39.9995 84.4991 39.8395 83.3951 39.6835 82.8871C39.0855 80.9751 37.3565 79.1851 35.4135 78.4651C34.2685 78.0281 32.1175 77.8551 30.9525 78.0971ZM34.5685 80.6251C36.4545 81.5001 37.3725 83.3081 37.3565 86.1651C37.3385 89.0611 36.4925 90.8641 34.7285 91.7611C33.5455 92.3711 31.5725 92.3891 30.4755 91.8311C29.7205 91.4271 28.8195 90.5131 28.3945 89.7061C27.6005 88.1801 27.5665 84.6211 28.3255 82.9921C29.1715 81.1501 30.5675 80.2381 32.5215 80.2211C33.3715 80.2041 33.9005 80.3071 34.5685 80.6251ZM46.4555 78.1491C45.2015 78.5171 44.4435 78.9381 43.7195 79.6751C43.3335 80.0611 42.9605 80.3771 42.8915 80.3771C42.8215 80.3771 42.7525 79.8701 42.7525 79.2371V78.0801L41.6565 78.1301L40.5465 78.1831L40.4945 86.1991L40.4585 94.2321H43.1035V89.1821C43.1215 83.8501 43.2075 82.9741 43.9135 81.9211C44.4085 81.1481 45.7305 80.4111 46.8965 80.2561C48.5705 80.0261 50.2825 80.9931 50.6695 82.3931C50.7945 82.8351 50.8635 85.1281 50.8635 88.6571V94.2321H53.5255L53.4735 87.9551L53.4215 81.6951L52.9615 80.7111C52.4325 79.6061 51.6405 78.8861 50.3875 78.3961C49.2945 77.9741 47.4775 77.8531 46.4555 78.1491ZM59.3255 78.0791C56.6645 78.6601 54.7785 80.6771 54.0375 83.7111C53.7035 85.0591 53.7555 87.6211 54.1235 88.8831C55.2035 92.6031 57.6005 94.4451 61.0735 94.1981C62.4135 94.0931 63.5785 93.6381 64.4755 92.8481C65.0755 92.3211 65.1305 92.3031 65.2355 92.6371C65.4125 93.2141 65.1305 95.4761 64.7925 96.2481C64.1255 97.7581 62.8025 98.4411 60.5785 98.4411C58.5885 98.4251 57.2445 97.6871 56.9285 96.4081C56.8415 96.0751 56.6645 95.9881 56.0135 95.8981C55.6047 95.8534 55.1983 95.7894 54.7955 95.7061C54.4265 95.6361 54.3875 95.6891 54.3875 96.3741C54.4055 98.0561 55.6755 99.5301 57.7215 100.232C58.6245 100.549 59.2745 100.635 60.6485 100.635C63.8255 100.635 66.0105 99.5121 67.0685 97.3541C67.8615 95.7581 67.9875 93.8991 67.9305 85.3761L67.8785 78.1841H65.5855L65.5335 79.0991C65.4995 79.6061 65.4295 80.0261 65.3785 80.0261C65.3215 80.0261 65.0055 79.7821 64.6535 79.4841C63.3135 78.3101 61.0215 77.7111 59.3265 78.0801L59.3255 78.0791ZM62.8025 80.6411C63.2975 80.9051 63.9295 81.3781 64.1945 81.7291C66.1705 84.3051 65.7975 89.6191 63.5065 91.2661C61.2675 92.8831 58.1465 92.0031 57.0365 89.4631C56.4695 88.1631 56.3305 85.2191 56.7725 83.6241C57.1055 82.3401 58.0555 81.1141 59.1355 80.5541C60.0845 80.0441 61.6715 80.0771 62.8025 80.6411ZM73.8745 78.1661C72.4135 78.5871 71.9715 78.7991 71.0005 79.5361C69.1135 80.9411 68.2345 83.0951 68.2515 86.2501C68.2515 88.5491 68.6035 89.9361 69.5565 91.4101C70.8265 93.3561 72.9945 94.4451 75.6385 94.4631C78.6905 94.4791 81.1055 93.1261 82.3235 90.7251L82.9395 89.4981L83.4855 90.6201C85.4795 94.8131 91.7225 95.8281 95.2685 92.5671C95.8315 92.0571 96.4485 91.3411 96.6255 91.0071C96.8205 90.6561 97.0105 90.3741 97.0625 90.3741C97.1195 90.3741 97.3105 90.7431 97.4875 91.2151C98.3725 93.3221 100.558 94.4791 103.678 94.4611C105.495 94.4611 106.835 94.1291 108.053 93.3561C108.777 92.9011 109.939 91.6001 109.939 91.2321C109.939 91.1631 110.026 90.8821 110.134 90.6221L110.307 90.1271L110.818 91.0071C113.026 94.8651 119.181 95.7231 122.528 92.6541C123.394 91.8481 124.574 89.7631 124.293 89.4981C124.205 89.4121 123.607 89.2681 122.953 89.1981L121.792 89.0431L121.505 89.6371C120.712 91.2841 119.585 92.1121 117.876 92.2511C115.176 92.4981 113.147 90.8291 112.618 87.9731C112.531 87.4651 112.496 87.0061 112.548 86.9531C112.6 86.9021 115.336 86.8671 118.613 86.8671H124.573V85.9221C124.573 84.7081 124.344 83.5161 123.855 82.2191C123.286 80.7101 121.562 79.0291 119.993 78.4491C118.297 77.8161 115.952 77.8551 114.278 78.5351C111.474 79.6751 109.778 82.5191 109.761 86.0431V87.2531L109.059 86.6371C108.299 86.0081 106.784 85.3931 104.386 84.7641C101.702 84.0621 100.804 83.7101 100.328 83.1641C99.8165 82.5541 99.7815 82.1511 100.151 81.4481C100.558 80.6411 101.684 80.2041 103.362 80.2041C105.282 80.2041 106.146 80.6411 106.766 81.9041C107.116 82.6221 107.276 82.7961 107.559 82.7441C107.955 82.6747 108.354 82.617 108.755 82.5711C109.744 82.4491 109.818 82.1851 109.163 80.7981C108.3 78.9551 106.306 78.0101 103.328 78.0281C101.932 78.0441 101.351 78.1141 100.524 78.4481C98.7235 79.1331 97.7005 80.3431 97.4355 82.1151L97.3105 82.9221L96.7645 81.8681C94.0145 76.6051 85.8305 76.7141 83.3815 82.0421L82.9395 83.0081L82.3235 81.7821C81.5465 80.2381 80.3295 79.1501 78.6735 78.5171C77.2085 77.9571 75.1625 77.8141 73.8745 78.1661ZM77.8065 80.6601C79.6225 81.5531 80.5245 83.3791 80.5245 86.1651C80.5065 90.0231 78.7255 92.3041 75.7255 92.3041C73.8915 92.3041 72.3575 91.2851 71.5295 89.5521C71.0915 88.6061 71.0525 88.3761 71.0525 86.1661C71.0525 83.5861 71.2475 82.8531 72.2705 81.6561C73.4885 80.2221 75.9905 79.7661 77.8065 80.6601ZM91.8435 80.4651C92.6935 80.8151 93.8375 81.8701 94.2445 82.6591C95.0215 84.1671 95.1425 87.3231 94.5105 89.1651C94.1555 90.2011 93.1875 91.3411 92.2505 91.7971C90.6635 92.6041 88.3705 92.3381 87.0665 91.1971C84.9165 89.3221 84.6515 84.0631 86.6065 81.8001C87.8245 80.3601 90.1685 79.7841 91.8435 80.4651ZM119.142 80.5381C120.539 81.1331 121.578 82.5541 121.631 83.9381L121.665 84.6741H112.675L112.727 84.1491C112.847 82.6751 113.87 81.2931 115.319 80.5731C116.269 80.0961 118.085 80.0771 119.142 80.5381ZM98.7585 85.4981C99.4645 86.1481 100.454 86.5341 103.592 87.3741C105.088 87.7781 106.519 88.2551 106.766 88.4291C108.283 89.5161 107.49 91.6191 105.352 92.1311C104.082 92.4251 102.356 92.2701 101.334 91.7451C100.627 91.3941 100.414 91.1461 99.9755 90.2191L99.4475 89.1311L97.3675 89.3391L97.4885 88.5151C97.5395 88.0601 97.5965 86.8501 97.5965 85.8321V83.9721L97.9295 84.5011C98.1035 84.7831 98.4765 85.2381 98.7585 85.4981ZM69.7695 25.2441C68.1605 25.3091 65.4515 25.7391 65.4515 25.9211C65.4515 25.9981 67.3635 26.9531 67.5065 26.9531C67.6455 26.9531 69.8655 28.0631 70.3545 28.3701C71.0005 28.7801 71.4595 29.1551 71.3255 29.1551C71.2395 29.1551 68.9585 28.2751 68.0955 27.9011C67.3935 27.6021 64.4715 26.7351 63.0455 26.3971C62.2785 26.2191 61.9535 26.1501 60.6435 25.9121C58.7105 25.5571 56.4435 25.5391 55.4505 25.8641C54.0375 26.3241 53.7205 26.8871 53.7205 28.9721C53.7205 30.1171 53.7765 30.6061 54.0285 31.6381C54.1325 32.0881 54.4405 33.0731 54.5885 33.4081C54.6265 33.5111 54.7605 33.8361 54.8745 34.1271C54.9905 34.4131 55.3375 35.1501 55.6445 35.7521C57.3655 39.1641 59.9415 42.0121 63.5745 44.5171C64.7175 45.3021 67.8365 46.7941 69.0845 47.1501C69.4015 47.2361 69.5085 47.4181 69.2495 47.4181C68.9585 47.4181 66.3275 46.6891 65.7855 46.4601C65.5801 46.3707 65.3716 46.2884 65.1605 46.2131C63.2885 45.4541 60.8945 43.8981 58.9135 42.1291C56.7429 40.1984 55.0078 37.8279 53.8235 35.1751C53.0665 33.4641 52.5505 31.4651 52.4245 29.7261C52.3475 28.7341 52.2695 28.4911 52.0085 28.5041C51.9225 28.5041 51.1065 28.4741 50.1995 28.4271C47.7515 28.3221 44.3955 28.5911 41.0795 29.1641C34.7325 30.2421 27.8875 32.7391 20.8395 36.5461C19.6669 37.1786 18.5086 37.8375 17.3655 38.5221C17.2325 38.6001 16.8105 38.8551 16.4255 39.0991C16.0405 39.3371 15.5885 39.6071 15.4245 39.7091C15.0605 39.9191 11.0325 42.6541 10.5525 43.0171C10.3695 43.1521 9.86654 43.5251 9.44554 43.8281C7.53354 45.2471 3.36854 48.6401 3.13054 48.9831C3.01254 49.1561 3.19454 49.2431 3.44654 49.1561C3.57154 49.1091 3.89654 49.0441 4.15654 49.0041C4.42654 48.9661 5.11954 48.7841 5.69654 48.5941C6.15971 48.4464 6.6251 48.3057 7.09254 48.1721C8.51354 47.8391 9.08954 47.7221 9.92754 47.6001C10.3005 47.5481 10.8595 47.4661 11.1765 47.4181C15.0825 46.8411 16.9465 46.6981 18.6835 46.8331C22.4645 47.1411 26.0795 47.7781 28.1485 48.5151C29.6955 49.0701 32.8465 50.7731 34.2345 51.7971C35.0325 52.3991 37.6075 54.9621 38.1745 55.7371C38.6175 56.3491 39.1065 56.8821 39.2245 56.8821C39.2585 56.8821 39.3105 54.9311 39.3195 52.5521L39.3455 48.2291L44.4045 48.1991C48.3845 48.1811 49.4895 48.2121 49.5595 48.2991C49.6545 48.4211 49.8845 48.8311 50.6425 50.2361C51.3675 51.5851 51.7225 52.2341 51.9425 52.6291C52.0565 52.8381 52.3245 53.3361 52.5505 53.7251C52.7575 54.1201 53.1525 54.8451 53.4205 55.3421C53.6905 55.8421 53.9115 56.2621 53.9115 56.2791C53.9115 56.3661 54.3055 56.8821 54.3755 56.8821C54.4155 56.8821 54.5085 56.7381 54.5755 56.5791C54.6535 56.4041 54.8555 56.0241 55.0175 55.7371C55.1905 55.4471 55.4975 54.8831 55.7105 54.4931C55.9225 54.0981 56.2135 53.5571 56.3655 53.2971C56.7895 52.5421 57.2315 51.7191 57.5955 51.0511C57.7785 50.7051 58.0695 50.1711 58.2375 49.8541C58.4105 49.5381 58.6625 49.0921 58.7975 48.8491C58.8954 48.6588 59.0057 48.4751 59.1275 48.2991C59.2005 48.2121 60.3365 48.1811 64.4325 48.1991L69.6355 48.2291L69.6605 56.6741C69.6835 63.3281 69.7085 65.1051 69.8085 65.1051C69.8635 65.0961 70.2505 64.8751 70.6455 64.5981C71.2005 64.2081 71.4425 63.9701 71.6985 63.5281C72.2885 62.5261 73.9485 60.9481 75.0665 60.3361C76.4216 59.5866 77.879 59.0395 79.3925 58.7121C80.9325 58.3871 81.3825 58.3391 84.8725 58.2121C91.2455 57.9921 92.1905 57.9521 92.2385 57.9051C92.2635 57.8781 92.1775 57.6271 92.0565 57.3411C91.9225 57.0641 91.6885 56.5481 91.5265 56.2061C90.9205 54.8921 90.9205 54.4551 91.5535 53.8121C91.9865 53.3661 93.1005 52.9721 95.0165 52.5901C95.3335 52.5201 95.7275 52.4381 95.8935 52.3771C96.0535 52.3301 96.2575 52.2951 96.3435 52.2951C96.5825 52.2951 98.4975 51.8221 98.9015 51.6711C99.1795 51.5581 100.679 51.2331 102.469 50.8871C103.246 50.7351 105.266 50.3321 106.939 49.9971C107.997 49.7891 109.102 49.5681 109.389 49.5121C109.679 49.4521 110.091 49.3691 110.303 49.3301C110.515 49.2821 110.793 49.2261 110.928 49.2041C111.061 49.1741 111.738 49.0441 112.418 48.9011C112.931 48.7892 113.447 48.6891 113.966 48.6011C114.447 48.5541 118.072 47.6831 118.908 47.4181C120.235 46.9861 120.628 46.8161 121.466 46.2521C122.372 45.6361 122.619 45.3021 123.512 43.5251C124.505 41.5451 124.648 41.2101 124.926 40.3781C125.358 39.0521 125.333 38.5451 124.781 37.9901C124.401 37.6081 123.573 37.2131 122.966 37.1261C122.516 37.0711 122.459 37.0871 122.233 37.3301C122.099 37.4741 121.986 37.6421 121.986 37.7031C121.986 37.7851 121.83 38.2111 121.401 39.2431C121.362 39.3461 121.276 39.6071 121.206 39.8141C121.139 40.0411 121.059 40.2642 120.967 40.4821C120.842 40.7511 120.834 40.7031 120.88 39.9571C120.928 39.2201 121.055 38.6001 121.332 37.6651C121.38 37.4831 121.449 37.1741 121.474 36.9831L121.522 36.6411L120.525 36.2381C119.704 35.9025 118.886 35.5585 118.073 35.2061C117.752 35.0793 117.431 34.955 117.109 34.8331C116.775 34.7124 116.446 34.5807 116.122 34.4381C115.787 34.2923 115.451 34.1523 115.112 34.0181C114.465 33.7711 112.215 33.0091 110.303 32.4051C109.783 32.2411 106.757 31.3351 106.458 31.2481C106.008 31.132 105.56 31.0077 105.115 30.8751C104.958 30.8361 104.585 30.7331 104.295 30.6541C102.605 30.1861 102.162 30.0691 101.555 29.8991C101.221 29.7998 100.884 29.7105 100.545 29.6311C100.363 29.5831 99.8645 29.4671 99.4385 29.3621C97.5986 28.9272 95.7566 28.5012 93.9125 28.0841C93.5111 27.9891 93.1091 27.8964 92.7065 27.8061C92.4201 27.7426 92.1324 27.6849 91.8435 27.6331C91.4424 27.5598 91.0423 27.4804 90.6435 27.3951C90.0189 27.272 89.3928 27.156 88.7655 27.0471C88.2053 26.9466 87.6446 26.8486 87.0835 26.7531C84.4315 26.2761 84.2475 26.2461 79.4885 25.7211C76.5535 25.3881 72.6125 25.1111 71.6505 25.1571C71.0235 25.1783 70.3968 25.2073 69.7705 25.2441M58.6555 29.9561C61.1905 30.7811 63.6625 31.8981 65.3575 32.9861C66.7005 33.8581 68.3745 35.2461 68.8255 35.8661L69.0205 36.1261L68.6515 35.9821C68.4515 35.8961 68.0275 35.7141 67.7115 35.5621C66.0215 34.7771 65.8385 34.7071 65.8385 34.8821C65.8385 34.9291 66.2325 35.5621 66.7005 36.2681C67.1825 36.9831 67.5675 37.6171 67.5675 37.6721C67.5675 37.7201 67.3855 37.6421 67.1645 37.4901C66.2985 36.8971 64.2685 36.0481 64.1515 36.2201C64.1265 36.2681 64.7515 37.0621 65.5475 37.9901C66.3355 38.9171 66.9905 39.7101 66.9905 39.7661C66.9905 39.9111 66.8355 39.8921 66.1075 39.6231C65.3575 39.3551 65.1615 39.3291 65.1615 39.5071C65.1615 39.6321 66.7875 41.8221 67.4335 42.5811C67.6155 42.7881 67.7585 42.9881 67.7585 43.0361C67.7585 43.2661 65.5085 41.8041 63.9135 40.5421C61.6335 38.7271 59.4305 36.2851 58.2685 34.2701C57.3195 32.6231 56.9905 31.7341 56.9905 30.7581C56.9905 30.1861 57.0205 30.0691 57.2335 29.8701C57.3555 29.7351 57.5105 29.6301 57.5665 29.6301C57.6265 29.6301 58.1045 29.7751 58.6555 29.9561ZM89.0095 33.3611C89.9335 33.5251 91.1895 33.7411 91.7965 33.8511C92.4035 33.9551 93.1405 34.0801 93.4315 34.1281C93.7175 34.1831 94.1335 34.2621 94.3455 34.3101C94.5545 34.3571 94.9705 34.4401 95.2555 34.5101C96.2105 34.7171 96.4405 34.7651 97.9975 35.1301C99.6695 35.5241 100.034 35.5971 100.546 35.7061C100.978 35.7881 101.412 35.9531 101.412 36.0311C101.412 36.0561 101.092 36.2401 100.711 36.4381C99.9205 36.8331 99.7565 36.8601 96.5085 36.9841C94.2935 37.0801 93.1155 37.0541 92.0365 36.8811C89.8635 36.5471 88.7405 35.9351 87.8645 34.6141C87.5575 34.1621 87.3545 34.0321 86.6515 33.8501C86.3915 33.7721 85.9965 33.6681 85.7885 33.6001C85.5765 33.5341 85.2115 33.4301 84.9785 33.3601C84.2885 33.1791 84.6825 33.0741 86.0745 33.0741C87.0365 33.0741 87.7095 33.1401 89.0095 33.3611ZM100.574 46.7211C100.494 46.7382 100.412 46.7382 100.333 46.7211C100.267 46.6891 100.315 46.6731 100.449 46.6731C100.583 46.6731 100.631 46.6901 100.574 46.7211ZM100.158 46.8321C100.158 46.8791 100.046 46.9491 99.8975 46.9761C99.2762 47.1447 98.6578 47.3237 98.0425 47.5131C97.9095 47.5611 97.4785 47.6951 97.0845 47.8071C96.0915 48.0931 93.6895 48.8781 93.0445 49.1251C91.8355 49.5851 88.9865 51.0981 88.5845 51.4961C87.9905 52.0821 87.8045 52.7151 87.8905 53.9201C87.9205 54.4221 87.9905 55.0641 88.0455 55.3411C88.1585 55.9441 88.0935 56.1091 87.8635 55.8101C87.6305 55.5161 87.1395 54.4451 86.9965 53.9201C86.9195 53.6771 86.8325 53.3651 86.7845 53.2101C86.6105 52.6671 86.6805 52.0251 86.9495 51.6311C87.3135 51.0761 88.6225 50.1881 90.1615 49.4511C90.8895 49.0991 93.0145 48.3711 94.9695 47.7981C95.3635 47.6821 95.7935 47.5481 95.9275 47.5131C97.3145 47.0451 100.158 46.5941 100.158 46.8321ZM69.7475 47.4741C69.7215 47.5001 69.6345 47.5131 69.5655 47.4821C69.4875 47.4521 69.5175 47.4261 69.6205 47.4261C69.7305 47.4171 69.7875 47.4441 69.7475 47.4741Z" fill="#8B8B8B"/>
<path d="M49.585 65.968V72.66H54.375C57.97 72.66 59.192 72.6299 59.278 72.5429C59.422 72.3999 59.452 59.2729 59.309 59.2729C59.262 59.2729 59.192 59.3479 59.162 59.4339C59.127 59.5209 58.077 61.154 56.826 63.067C54.848 66.089 54.297 66.825 54.297 66.453C54.297 66.387 51.02 61.2729 50.183 60.0369C50.0687 59.8768 49.9684 59.7072 49.883 59.5299C49.806 59.3849 49.711 59.2739 49.663 59.2739C49.624 59.2739 49.585 62.287 49.585 65.968Z" fill="#8B8B8B"/>
</svg>
