<svg width="75" height="75" viewBox="0 0 75 75" fill="none" xmlns="http://www.w3.org/2000/svg">
<path fill-rule="evenodd" clip-rule="evenodd" d="M1.07934e-06 37.4952C0.00082421 31.0248 1.67585 24.6646 4.86221 19.0331C8.04858 13.4017 12.6379 8.69044 18.1839 5.35753C23.7299 2.02463 30.044 0.183459 36.5122 0.0130154C42.9804 -0.157428 49.3826 1.34866 55.0965 4.38485C60.8104 7.42104 65.6414 11.884 69.1199 17.3399C72.5985 22.7958 74.6061 29.0589 74.9477 35.5203C75.2893 41.9817 73.9532 48.4216 71.0693 54.2138C68.1854 60.006 63.8519 64.9535 58.49 68.5752L24.53 21.0452C24.2217 20.6163 23.7854 20.296 23.2838 20.1304C22.7822 19.9648 22.241 19.9623 21.7379 20.1234C21.2347 20.2844 20.7956 20.6007 20.4834 21.0268C20.1711 21.4529 20.0019 21.967 20 22.4952V59.9952H25V30.2952L54.15 71.1052C48.432 73.9386 42.0856 75.2659 35.7113 74.9615C29.3371 74.6572 23.146 72.7312 17.724 69.3658C12.3021 66.0005 7.82858 61.3072 4.72703 55.7301C1.62548 50.153 -0.00152981 43.8767 1.07934e-06 37.4952ZM50 49.9952V19.9952H55V49.9952H50Z" fill="#8B8B8B"/>
</svg>
