<svg width="24" height="24" viewBox="0 0 24 24" fill="none" xmlns="http://www.w3.org/2000/svg">
<g id="vscode-icons:file-type-outlook">
<path id="Vector" d="M14.6128 5.95264V10.0604L16.0498 10.9641C16.1017 10.9755 16.1554 10.9755 16.2073 10.9641L22.3858 6.79864C22.3813 6.59647 22.3073 6.40202 22.1763 6.24796C22.0454 6.0939 21.8653 5.98962 21.6665 5.95264H14.6128Z" fill="#8B8B8B"/>
<path id="Vector_2" d="M14.6132 11.593L15.9234 12.493C15.9848 12.5303 16.0552 12.5501 16.127 12.5501C16.1989 12.5501 16.2693 12.5303 16.3307 12.493C16.1057 12.6287 22.3854 8.45947 22.3854 8.45947V16.009C22.4018 16.162 22.3845 16.3167 22.3349 16.4623C22.2852 16.6079 22.2043 16.7409 22.0979 16.852C21.9914 16.9631 21.862 17.0496 21.7186 17.1054C21.5753 17.1612 21.4214 17.1851 21.2679 17.1752H14.6124L14.6132 11.593ZM7.83016 9.69922C7.61246 9.69817 7.39853 9.75604 7.21103 9.86669C7.02354 9.97733 6.86948 10.1366 6.76516 10.3277C6.48025 10.8342 6.34354 11.4107 6.37066 11.9912C6.34105 12.5705 6.47795 13.1462 6.76516 13.6502C6.86904 13.8334 7.01931 13.9861 7.20088 14.0928C7.38245 14.1996 7.58891 14.2567 7.79952 14.2583C8.01013 14.26 8.21748 14.2062 8.40072 14.1024C8.58396 13.9985 8.73663 13.8483 8.84341 13.6667C9.12749 13.1651 9.26156 12.5924 9.22966 12.0167C9.26219 11.423 9.13256 10.8316 8.85466 10.306C8.75535 10.1211 8.60743 9.9669 8.42688 9.85997C8.24632 9.75304 8.03999 9.69746 7.83016 9.69922Z" fill="#8B8B8B"/>
<path id="Vector_3" d="M1.61475 3.86625V19.9365L13.8397 22.5V1.5L1.61475 3.86625ZM9.79575 14.6182C9.56706 14.9406 9.26298 15.2022 8.91002 15.3801C8.55706 15.558 8.16593 15.6469 7.77075 15.639C7.38551 15.6458 7.00431 15.5595 6.65958 15.3874C6.31486 15.2153 6.01679 14.9625 5.79075 14.6505C5.25464 13.902 4.98645 12.9947 5.0295 12.075C4.98389 11.1102 5.25692 10.1572 5.8065 9.363C6.03807 9.03445 6.34692 8.76791 6.70582 8.5869C7.06472 8.40588 7.46264 8.31594 7.8645 8.325C8.24695 8.31733 8.62543 8.40365 8.96673 8.57639C9.30803 8.74913 9.60172 9.00302 9.822 9.31575C10.3527 10.0805 10.6164 10.9989 10.572 11.9288C10.6188 12.8865 10.3457 13.8327 9.79575 14.6182Z" fill="#8B8B8B"/>
</g>
</svg>
