<svg width="410" height="369" viewBox="0 0 410 369" fill="none" xmlns="http://www.w3.org/2000/svg">
<path d="M265.5 190.959C290.864 190.959 311.549 211.644 311.549 237.5C311.549 262.125 290.864 283.056 265.5 283.056C240.136 283.056 219.451 262.125 219.451 237.5C219.451 211.644 240.136 190.959 265.5 190.959ZM151.486 434.5C167 443.857 200.982 429.575 240.136 392.637C227.331 378.109 214.773 362.349 202.952 345.85C183.109 343.951 163.38 340.992 143.852 336.985C131.294 389.682 135.973 425.881 151.486 434.5ZM168.97 293.152L161.829 280.594C159.12 287.735 156.411 294.876 154.688 301.771C161.336 303.249 168.724 304.48 176.357 305.711L168.97 293.152ZM330.017 274.437L349.964 237.5L330.017 200.562C322.63 187.511 314.75 175.937 307.609 164.364C294.311 163.625 280.275 163.625 265.5 163.625C250.725 163.625 236.689 163.625 223.391 164.364C216.25 175.937 208.37 187.511 200.982 200.562L181.036 237.5L200.982 274.437C208.37 287.489 216.25 299.062 223.391 310.636C236.689 311.375 250.725 311.375 265.5 311.375C280.275 311.375 294.311 311.375 307.609 310.636C314.75 299.062 322.63 287.489 330.017 274.437ZM265.5 108.957C260.821 114.375 255.896 120.039 250.971 126.687H280.029C275.104 120.039 270.179 114.375 265.5 108.957ZM265.5 366.042C270.179 360.625 275.104 354.961 280.029 348.312H250.971C255.896 354.961 260.821 360.625 265.5 366.042ZM379.268 40.5C364 31.1425 330.017 45.425 290.864 82.3625C303.669 96.8912 316.228 112.651 328.047 129.15C348.24 131.12 368.186 134.075 387.148 138.015C399.706 85.3175 395.028 49.1187 379.268 40.5ZM362.03 181.847L369.171 194.406C371.88 187.265 374.589 180.124 376.312 173.229C369.664 171.751 362.276 170.52 354.642 169.289L362.03 181.847ZM397.736 8.24123C433.935 28.9262 437.875 83.3475 422.607 146.88C485.155 165.349 530.219 195.884 530.219 237.5C530.219 279.116 485.155 309.651 422.607 328.12C437.875 391.652 433.935 446.074 397.736 466.759C361.784 487.444 312.78 463.804 265.5 418.74C218.22 463.804 169.216 487.444 133.018 466.759C97.065 446.074 93.125 391.652 108.392 328.12C45.845 309.651 0.78125 279.116 0.78125 237.5C0.78125 195.884 45.845 165.349 108.392 146.88C93.125 83.3475 97.065 28.9262 133.018 8.24123C169.216 -12.4438 218.22 11.1962 265.5 56.26C312.78 11.1962 361.784 -12.4438 397.736 8.24123ZM390.595 237.5C398.967 255.969 406.355 274.438 412.511 293.152C464.224 277.639 493.281 255.476 493.281 237.5C493.281 219.524 464.224 197.361 412.511 181.847C406.355 200.562 398.967 219.031 390.595 237.5ZM140.405 237.5C132.033 219.031 124.645 200.562 118.489 181.847C66.7763 197.361 37.7188 219.524 37.7188 237.5C37.7188 255.476 66.7763 277.639 118.489 293.152C124.645 274.438 132.033 255.969 140.405 237.5ZM362.03 293.152L354.642 305.711C362.276 304.48 369.664 303.249 376.312 301.771C374.589 294.876 371.88 287.735 369.171 280.594L362.03 293.152ZM290.864 392.637C330.017 429.575 364 443.857 379.268 434.5C395.028 425.881 399.706 389.682 387.148 336.985C368.186 340.925 348.24 343.88 328.047 345.85C316.228 362.349 303.669 378.109 290.864 392.637ZM168.97 181.847L176.357 169.289C168.724 170.52 161.336 171.751 154.688 173.229C156.411 180.124 159.12 187.265 161.829 194.406L168.97 181.847ZM240.136 82.3625C200.982 45.425 167 31.1425 151.486 40.5C135.973 49.1187 131.294 85.3175 143.852 138.015C163.38 134.008 183.109 131.049 202.952 129.15C214.773 112.651 227.331 96.8912 240.136 82.3625Z" fill="url(#paint0_linear_11559_647)"/>
<defs>
<linearGradient id="paint0_linear_11559_647" x1="1" y1="0.999996" x2="408" y2="367.5" gradientUnits="userSpaceOnUse">
<stop stop-color="#8B8B8B" stop-opacity="0.6"/>
<stop offset="1" stop-color="#8B8B8B" stop-opacity="0"/>
</linearGradient>
</defs>
</svg>
