<svg width="75" height="75" viewBox="0 0 75 75" fill="none" xmlns="http://www.w3.org/2000/svg">
<g opacity="0.75">
<path d="M37.5 31.5938C40.7188 31.5938 43.3438 34.2188 43.3438 37.5C43.3438 40.625 40.7188 43.2813 37.5 43.2813C34.2812 43.2813 31.6562 40.625 31.6562 37.5C31.6562 34.2188 34.2812 31.5938 37.5 31.5938ZM23.0312 62.5C25 63.6875 29.3125 61.875 34.2812 57.1875C32.6562 55.3438 31.0625 53.3438 29.5625 51.25C27.0442 51.009 24.5407 50.6335 22.0625 50.125C20.4688 56.8125 21.0625 61.4063 23.0312 62.5ZM25.25 44.5625L24.3438 42.9688C24 43.875 23.6562 44.7813 23.4375 45.6563C24.2812 45.8438 25.2188 46 26.1875 46.1563L25.25 44.5625ZM45.6875 42.1875L48.2188 37.5L45.6875 32.8125C44.75 31.1563 43.75 29.6875 42.8438 28.2188C41.1562 28.125 39.375 28.125 37.5 28.125C35.625 28.125 33.8438 28.125 32.1562 28.2188C31.25 29.6875 30.25 31.1563 29.3125 32.8125L26.7812 37.5L29.3125 42.1875C30.25 43.8438 31.25 45.3125 32.1562 46.7813C33.8438 46.875 35.625 46.875 37.5 46.875C39.375 46.875 41.1562 46.875 42.8438 46.7813C43.75 45.3125 44.75 43.8438 45.6875 42.1875ZM37.5 21.1875C36.9062 21.875 36.2812 22.5938 35.6562 23.4375H39.3438C38.7188 22.5938 38.0938 21.875 37.5 21.1875ZM37.5 53.8125C38.0938 53.125 38.7188 52.4063 39.3438 51.5625H35.6562C36.2812 52.4063 36.9062 53.125 37.5 53.8125ZM51.9375 12.5C50 11.3125 45.6875 13.125 40.7188 17.8125C42.3438 19.6563 43.9375 21.6563 45.4375 23.75C48 24 50.5312 24.375 52.9375 24.875C54.5312 18.1875 53.9375 13.5938 51.9375 12.5ZM49.75 30.4375L50.6562 32.0313C51 31.125 51.3438 30.2188 51.5625 29.3438C50.7188 29.1563 49.7812 29 48.8125 28.8438L49.75 30.4375ZM54.2813 8.40626C58.875 11.0313 59.375 17.9375 57.4375 26C65.375 28.3438 71.0938 32.2188 71.0938 37.5C71.0938 42.7813 65.375 46.6563 57.4375 49C59.375 57.0625 58.875 63.9688 54.2813 66.5938C49.7188 69.2188 43.5 66.2188 37.5 60.5C31.5 66.2188 25.2812 69.2188 20.6875 66.5938C16.125 63.9688 15.625 57.0625 17.5625 49C9.625 46.6563 3.90625 42.7813 3.90625 37.5C3.90625 32.2188 9.625 28.3438 17.5625 26C15.625 17.9375 16.125 11.0313 20.6875 8.40626C25.2812 5.78126 31.5 8.78125 37.5 14.5C43.5 8.78125 49.7188 5.78126 54.2813 8.40626ZM53.375 37.5C54.4375 39.8438 55.375 42.1875 56.1562 44.5625C62.7187 42.5938 66.4062 39.7813 66.4062 37.5C66.4062 35.2188 62.7187 32.4063 56.1562 30.4375C55.375 32.8125 54.4375 35.1563 53.375 37.5ZM21.625 37.5C20.5625 35.1563 19.625 32.8125 18.8438 30.4375C12.2813 32.4063 8.59375 35.2188 8.59375 37.5C8.59375 39.7813 12.2813 42.5938 18.8438 44.5625C19.625 42.1875 20.5625 39.8438 21.625 37.5ZM49.75 44.5625L48.8125 46.1563C49.7812 46 50.7188 45.8438 51.5625 45.6563C51.3438 44.7813 51 43.875 50.6562 42.9688L49.75 44.5625ZM40.7188 57.1875C45.6875 61.875 50 63.6875 51.9375 62.5C53.9375 61.4063 54.5312 56.8125 52.9375 50.125C50.5312 50.625 48 51 45.4375 51.25C43.9375 53.3438 42.3438 55.3438 40.7188 57.1875ZM25.25 30.4375L26.1875 28.8438C25.2188 29 24.2812 29.1563 23.4375 29.3438C23.6562 30.2188 24 31.125 24.3438 32.0313L25.25 30.4375ZM34.2812 17.8125C29.3125 13.125 25 11.3125 23.0312 12.5C21.0625 13.5938 20.4688 18.1875 22.0625 24.875C24.5407 24.3665 27.0442 23.991 29.5625 23.75C31.0625 21.6563 32.6562 19.6563 34.2812 17.8125Z" fill="#8B8B8B"/>
</g>
</svg>
